<?xml version="1.0" encoding="UTF-8" standalone="no"?>
<svg
   fill="none"
   viewBox="0 0 78.999999 77"
   version="1.1"
   id="svg31"
   width="79"
   height="77"
   xmlns="http://www.w3.org/2000/svg"
   xmlns:svg="http://www.w3.org/2000/svg">
  <g
     clip-path="url(#f)"
     id="g6"
     transform="matrix(0.40740201,0,0,0.40740201,2.4812112,-0.40638114)">
    <path
       d="m 90,189 c 3.06,0 6.07,-0.85 8.73,-2.47 l 61.97,-37.66 c 5.54,-3.37 8.97,-9.7 8.97,-16.54 V 57.62 c 0,-6.82 -3.43,-13.16 -8.97,-16.54 L 98.73,3.42 C 93.4,0.18 86.58,0.2 81.28,3.42 L 19.31,41.1 c -5.54,3.37 -8.99,9.7 -8.99,16.54 v 74.7 c 0,5.76 2.45,11.18 6.55,14.75 v 0.03 l 64.41,39.43 c 2.64,1.6 5.66,2.45 8.72,2.45 z M 90.65,7.95 c 1.95,0 4.43,1.21 6.14,2.26 l 60.76,37.19 c 3.75,2.28 5.87,8.88 5.87,13.63 l -0.63,71.3 c 0,4.75 -3.2,9.02 -6.95,11.3 l -60.4,36.38 c -3.43,2.09 -6.22,2.09 -9.66,0 L 24.57,143.54 C 20.82,141.26 17.8,137.06 17.8,132.33 V 58.69 c 0,-4.74 2.73,-9.63 6.5,-11.92 L 84.88,10.21 c 1.7,-1.04 3.82,-2.26 5.77,-2.26 z"
       fill="#f2f1f0"
       id="path1" />
    <path
       d="M 97.9,11.53 C 95.45,10.03 92.73,9.28 90,9.28 c -2.73,0 -5.45,0.76001 -7.9,2.25 L 25.97,45.86 c -5.02,3.07 -8.13,8.82 -8.13,15.07 v 68.1 c 0,6.23 3.1,12 8.13,15.07 l 56.13,34.33 c 2.45,1.5 5.17,2.25 7.9,2.25 2.73,0 5.45,-0.74 7.9,-2.25 l 56.13,-34.33 c 5.02,-3.07 8.13,-8.84 8.13,-15.07 v -68.1 c 0,-6.23 -3.1,-11.98 -8.13,-15.07 z"
       clip-rule="evenodd"
       fill="url(#c)"
       fill-rule="evenodd"
       id="path2"
       style="fill:url(#c)" />
    <path
       d="m 90,10.75 c 1.68,0 3.57,0.87 5.63,2.12 l 58.47,35.54 c 3.65,2.22 6.06,6.49 6.06,11.32 v 70.48 c 0,4.82 -2.41,9.1 -6.06,11.32 l -58.46,35.54 c -1.96,1.19 -3.88,1.94 -5.63,1.94 -1.75,0 -3.67,-0.75 -5.63,-1.94 L 25.9,141.54 c -2.01,-1.23 -3.46,-2.43 -4.44,-4.04 -0.98,-1.6 -1.62,-3.82 -1.62,-7.28 V 59.74 c 0,-4.83 2.41,-9.1 6.06,-11.32 L 84.36,12.88 c 2.09,-1.25 3.95,-2.13 5.64,-2.13 z m 7.71,169.75 58.46,-35.54 c 4.92,-2.99 7.98,-8.61 7.98,-14.74 V 59.74 c 0,-6.13 -3.06,-11.75 -7.98,-14.74 L 97.71,9.46 C 95.6,8.18 92.89,6.75 90,6.75 c -2.9,0 -5.61,1.44 -7.7,2.7 H 82.29 L 23.82,45 c -4.92,2.99 -7.98,8.61 -7.98,14.74 v 70.48 c 0,3.96 0.74,6.95 2.2,9.36 1.46,2.4 3.52,4 5.78,5.37 l 58.46,35.54 c 2.22,1.35 4.89,2.53 7.71,2.53 2.82,0 5.5,-1.17 7.72,-2.52 z"
       clip-rule="evenodd"
       fill="url(#b)"
       fill-rule="evenodd"
       id="path3"
       style="fill:url(#b)" />
    <g
       filter="url(#e)"
       id="g4">
      <path
         d="m 27.591,69.26 v 51.474 c 0,6.37 3.3968,12.259 8.9155,15.442 l 44.578,25.739 c 5.5187,3.187 12.312,3.187 17.831,0 l 44.577,-25.739 c 5.519,-3.187 8.916,-9.072 8.916,-15.442 V 69.26 c 0,-6.3701 -3.397,-12.259 -8.916,-15.442 L 98.9155,28.083 c -5.5187,-3.1873 -12.312,-3.1873 -17.831,0 L 36.5065,53.818 C 30.9878,57.0053 27.591,62.8896 27.591,69.26 Z"
         fill="url(#a)"
         id="path4"
         style="fill:url(#a)" />
    </g>
    <g
       filter="url(#d)"
       id="g5">
      <path
         d="m 58.796,86.087 v 17.831 c 0,1.181 0.468,2.318 1.3061,3.151 0.8381,0.838 1.9703,1.306 3.1516,1.306 1.1813,0 2.3181,-0.468 3.1517,-1.306 0.838,-0.838 1.3061,-1.97 1.3061,-3.151 0,-1.182 0.4681,-2.318 1.3061,-3.152 0.8381,-0.8381 1.9704,-1.3061 3.1517,-1.3061 1.1813,0 2.318,0.468 3.1516,1.3061 0.8381,0.838 1.3061,1.97 1.3061,3.152 0,3.548 -1.4086,6.949 -3.9183,9.455 -2.5098,2.509 -5.911,3.918 -9.455,3.918 -3.5439,0 -6.9496,-1.409 -9.4549,-3.918 -2.5097,-2.51 -3.9184,-5.911 -3.9184,-9.455 V 86.087 c 0,-3.5484 1.4087,-6.9497 3.9184,-9.455 2.5097,-2.5097 5.911,-3.9183 9.4549,-3.9183 3.544,0 6.9497,1.4086 9.455,3.9183 2.5052,2.5098 3.9183,5.911 3.9183,9.455 0,1.1813 -0.468,2.318 -1.3061,3.1516 -0.8381,0.8381 -1.9703,1.3061 -3.1516,1.3061 -1.1813,0 -2.3181,-0.468 -3.1517,-1.3061 -0.838,-0.8381 -1.3061,-1.9703 -1.3061,-3.1516 0,-1.1813 -0.4681,-2.3181 -1.3061,-3.1517 -0.8381,-0.838 -1.9704,-1.3061 -3.1517,-1.3061 -1.1813,0 -2.318,0.4681 -3.1516,1.3061 -0.8381,0.8381 -1.3061,1.9704 -1.3061,3.1517 z m 71.324,17.831 c 0,1.181 -0.468,2.318 -1.306,3.151 -0.838,0.838 -1.971,1.306 -3.152,1.306 h -4.458 v 4.458 c 0,1.181 -0.468,2.318 -1.306,3.152 -0.838,0.833 -1.97,1.306 -3.151,1.306 -1.182,0 -2.318,-0.468 -3.152,-1.306 -0.834,-0.838 -1.306,-1.971 -1.306,-3.152 v -4.458 h -8.916 v 4.458 c 0,1.181 -0.468,2.318 -1.306,3.152 -0.838,0.833 -1.97,1.306 -3.1514,1.306 -1.1813,0 -2.3181,-0.468 -3.1517,-1.306 -0.838,-0.838 -1.3061,-1.971 -1.3061,-3.152 v -4.458 H 90 c -1.1813,0 -2.318,-0.468 -3.1516,-1.306 -0.8381,-0.838 -1.3061,-1.97 -1.3061,-3.151 0,-1.182 0.468,-2.318 1.3061,-3.152 0.8381,-0.8381 1.9703,-1.3061 3.1516,-1.3061 h 4.4578 V 90.5443 H 90 c -1.1813,0 -2.318,-0.468 -3.1516,-1.3061 -0.8381,-0.8381 -1.3061,-1.9703 -1.3061,-3.1516 0,-1.1813 0.468,-2.3181 1.3061,-3.1517 0.8381,-0.838 1.9703,-1.3061 3.1516,-1.3061 h 4.4578 V 77.171 c 0,-1.1813 0.4681,-2.318 1.3061,-3.1516 0.8381,-0.8381 1.9704,-1.3061 3.1517,-1.3061 1.1814,0 2.3184,0.468 3.1514,1.3061 0.838,0.838 1.306,1.9703 1.306,3.1516 v 4.4578 h 8.916 V 77.171 c 0,-1.1813 0.468,-2.318 1.306,-3.1516 0.838,-0.8381 1.97,-1.3061 3.152,-1.3061 1.181,0 2.318,0.468 3.151,1.3061 0.834,0.838 1.306,1.9703 1.306,3.1516 v 4.4578 h 4.458 c 1.181,0 2.318,0.4681 3.152,1.3061 0.833,0.8381 1.306,1.9704 1.306,3.1517 0,1.1813 -0.468,2.318 -1.306,3.1516 -0.838,0.8381 -1.971,1.3061 -3.152,1.3061 h -4.458 v 8.9156 h 4.458 c 1.181,0 2.318,0.468 3.152,1.3061 0.833,0.838 1.306,1.97 1.306,3.152 z M 112.289,90.544 h -8.916 v 8.9156 h 8.916 z"
         fill="#ffffff"
         id="path5" />
    </g>
  </g>
  <defs
     id="defs31">
    <filter
       id="e"
       x="21.591"
       y="23.693001"
       width="149.82001"
       height="181.61"
       color-interpolation-filters="sRGB"
       filterUnits="userSpaceOnUse">
      <feFlood
         flood-opacity="0"
         result="BackgroundImageFix"
         id="feFlood6" />
      <feColorMatrix
         in="SourceAlpha"
         result="hardAlpha"
         values="0 0 0 0 0 0 0 0 0 0 0 0 0 0 0 0 0 0 127 0"
         id="feColorMatrix6" />
      <feOffset
         id="feOffset6" />
      <feColorMatrix
         values="0 0 0 0 0 0 0 0 0 0 0 0 0 0 0 0 0 0 0.1 0"
         id="feColorMatrix7" />
      <feBlend
         in2="BackgroundImageFix"
         result="effect1_dropShadow_1812_34261"
         id="feBlend7"
         mode="normal" />
      <feColorMatrix
         in="SourceAlpha"
         result="hardAlpha"
         values="0 0 0 0 0 0 0 0 0 0 0 0 0 0 0 0 0 0 127 0"
         id="feColorMatrix8" />
      <feOffset
         dy="2"
         id="feOffset8" />
      <feGaussianBlur
         stdDeviation="2"
         id="feGaussianBlur8" />
      <feColorMatrix
         values="0 0 0 0 0 0 0 0 0 0 0 0 0 0 0 0 0 0 0.1 0"
         id="feColorMatrix9" />
      <feBlend
         in2="effect1_dropShadow_1812_34261"
         result="effect2_dropShadow_1812_34261"
         id="feBlend9"
         mode="normal" />
      <feColorMatrix
         in="SourceAlpha"
         result="hardAlpha"
         values="0 0 0 0 0 0 0 0 0 0 0 0 0 0 0 0 0 0 127 0"
         id="feColorMatrix10" />
      <feOffset
         dx="2"
         dy="7"
         id="feOffset10" />
      <feGaussianBlur
         stdDeviation="3.5"
         id="feGaussianBlur10" />
      <feColorMatrix
         values="0 0 0 0 0 0 0 0 0 0 0 0 0 0 0 0 0 0 0.09 0"
         id="feColorMatrix11" />
      <feBlend
         in2="effect2_dropShadow_1812_34261"
         result="effect3_dropShadow_1812_34261"
         id="feBlend11"
         mode="normal" />
      <feColorMatrix
         in="SourceAlpha"
         result="hardAlpha"
         values="0 0 0 0 0 0 0 0 0 0 0 0 0 0 0 0 0 0 127 0"
         id="feColorMatrix12" />
      <feOffset
         dx="4"
         dy="16"
         id="feOffset12" />
      <feGaussianBlur
         stdDeviation="5"
         id="feGaussianBlur12" />
      <feColorMatrix
         values="0 0 0 0 0 0 0 0 0 0 0 0 0 0 0 0 0 0 0.05 0"
         id="feColorMatrix13" />
      <feBlend
         in2="effect3_dropShadow_1812_34261"
         result="effect4_dropShadow_1812_34261"
         id="feBlend13"
         mode="normal" />
      <feColorMatrix
         in="SourceAlpha"
         result="hardAlpha"
         values="0 0 0 0 0 0 0 0 0 0 0 0 0 0 0 0 0 0 127 0"
         id="feColorMatrix14" />
      <feOffset
         dx="7"
         dy="29"
         id="feOffset14" />
      <feGaussianBlur
         stdDeviation="6"
         id="feGaussianBlur14" />
      <feColorMatrix
         values="0 0 0 0 0 0 0 0 0 0 0 0 0 0 0 0 0 0 0.01 0"
         id="feColorMatrix15" />
      <feBlend
         in2="effect4_dropShadow_1812_34261"
         result="effect5_dropShadow_1812_34261"
         id="feBlend15"
         mode="normal" />
      <feBlend
         in="SourceGraphic"
         in2="effect5_dropShadow_1812_34261"
         result="shape"
         id="feBlend16"
         mode="normal" />
    </filter>
    <filter
       id="d"
       x="43.880001"
       y="71.712997"
       width="92.239998"
       height="66.578003"
       color-interpolation-filters="sRGB"
       filterUnits="userSpaceOnUse">
      <feFlood
         flood-opacity="0"
         result="BackgroundImageFix"
         id="feFlood16" />
      <feColorMatrix
         in="SourceAlpha"
         result="hardAlpha"
         values="0 0 0 0 0 0 0 0 0 0 0 0 0 0 0 0 0 0 127 0"
         id="feColorMatrix16" />
      <feOffset
         id="feOffset16" />
      <feColorMatrix
         values="0 0 0 0 0 0 0 0 0 0 0 0 0 0 0 0 0 0 0.1 0"
         id="feColorMatrix17" />
      <feBlend
         in2="BackgroundImageFix"
         result="effect1_dropShadow_1812_34261"
         id="feBlend17"
         mode="normal" />
      <feColorMatrix
         in="SourceAlpha"
         result="hardAlpha"
         values="0 0 0 0 0 0 0 0 0 0 0 0 0 0 0 0 0 0 127 0"
         id="feColorMatrix18" />
      <feOffset
         dy="1"
         id="feOffset18" />
      <feGaussianBlur
         stdDeviation="1"
         id="feGaussianBlur18" />
      <feColorMatrix
         values="0 0 0 0 0 0 0 0 0 0 0 0 0 0 0 0 0 0 0.1 0"
         id="feColorMatrix19" />
      <feBlend
         in2="effect1_dropShadow_1812_34261"
         result="effect2_dropShadow_1812_34261"
         id="feBlend19"
         mode="normal" />
      <feColorMatrix
         in="SourceAlpha"
         result="hardAlpha"
         values="0 0 0 0 0 0 0 0 0 0 0 0 0 0 0 0 0 0 127 0"
         id="feColorMatrix20" />
      <feOffset
         dy="4"
         id="feOffset20" />
      <feGaussianBlur
         stdDeviation="2"
         id="feGaussianBlur20" />
      <feColorMatrix
         values="0 0 0 0 0 0 0 0 0 0 0 0 0 0 0 0 0 0 0.09 0"
         id="feColorMatrix21" />
      <feBlend
         in2="effect2_dropShadow_1812_34261"
         result="effect3_dropShadow_1812_34261"
         id="feBlend21"
         mode="normal" />
      <feColorMatrix
         in="SourceAlpha"
         result="hardAlpha"
         values="0 0 0 0 0 0 0 0 0 0 0 0 0 0 0 0 0 0 127 0"
         id="feColorMatrix22" />
      <feOffset
         dy="9"
         id="feOffset22" />
      <feGaussianBlur
         stdDeviation="2.5"
         id="feGaussianBlur22" />
      <feColorMatrix
         values="0 0 0 0 0 0 0 0 0 0 0 0 0 0 0 0 0 0 0.05 0"
         id="feColorMatrix23" />
      <feBlend
         in2="effect3_dropShadow_1812_34261"
         result="effect4_dropShadow_1812_34261"
         id="feBlend23"
         mode="normal" />
      <feColorMatrix
         in="SourceAlpha"
         result="hardAlpha"
         values="0 0 0 0 0 0 0 0 0 0 0 0 0 0 0 0 0 0 127 0"
         id="feColorMatrix24" />
      <feOffset
         dy="15"
         id="feOffset24" />
      <feGaussianBlur
         stdDeviation="3"
         id="feGaussianBlur24" />
      <feColorMatrix
         values="0 0 0 0 0 0 0 0 0 0 0 0 0 0 0 0 0 0 0.01 0"
         id="feColorMatrix25" />
      <feBlend
         in2="effect4_dropShadow_1812_34261"
         result="effect5_dropShadow_1812_34261"
         id="feBlend25"
         mode="normal" />
      <feBlend
         in="SourceGraphic"
         in2="effect5_dropShadow_1812_34261"
         result="shape"
         id="feBlend26"
         mode="normal" />
    </filter>
    <linearGradient
       id="c"
       x1="44.328999"
       x2="197.53"
       y1="22.798"
       y2="204.71001"
       gradientUnits="userSpaceOnUse">
      <stop
         stop-color="#fff"
         offset=".0052083"
         id="stop26" />
      <stop
         stop-color="#D3C7FF"
         offset="1"
         id="stop27" />
    </linearGradient>
    <linearGradient
       id="b"
       x1="30.406"
       x2="109.46"
       y1="45.283001"
       y2="173.86"
       gradientUnits="userSpaceOnUse">
      <stop
         stop-color="#927BE5"
         offset="0"
         id="stop28" />
      <stop
         stop-color="#512BD4"
         offset="1"
         id="stop29" />
    </linearGradient>
    <linearGradient
       id="a"
       x1="39.849998"
       x2="100.03"
       y1="55.993999"
       y2="160.75"
       gradientUnits="userSpaceOnUse">
      <stop
         stop-color="#927BE5"
         offset="0"
         id="stop30" />
      <stop
         stop-color="#512BD4"
         offset="1"
         id="stop31" />
    </linearGradient>
    <clipPath
       id="f">
      <rect
         width="180"
         height="190"
         fill="#ffffff"
         id="rect31"
         x="0"
         y="0" />
    </clipPath>
  </defs>
</svg>
