<?xml version="1.0" encoding="UTF-8"?>
<svg viewBox="0 0 353 353" xmlns="http://www.w3.org/2000/svg">
    <linearGradient id="a" gradientUnits="userSpaceOnUse">
        <stop stop-color="#f40a0b" offset="0"/>
        <stop stop-color="#f5e710" offset="1"/>
    </linearGradient>
    <linearGradient id="e" x1="86.36" x2="86.36" y1="337.96" y2="7.12" xlink:href="#a" xmlns:xlink="http://www.w3.org/1999/xlink"/>
    <linearGradient id="d" x1="216.11" x2="216.11" y1="348.99" y2="7.28" xlink:href="#a" xmlns:xlink="http://www.w3.org/1999/xlink"/>
    <switch>
        <g clip-rule="evenodd" fill-rule="evenodd">
            <path d="m353 353h-353v-353h353z" fill="none"/>
            <g fill="#111">
                <path d="m80.704 271.88c3.24 25.704 17.208 45.072 38.592 64.08l-7.704-3.888c-60.768-26.136-103.25-86.545-103.25-156.82 0-89.28 68.904-163.51 158.04-170.14-89.136 6.624-158.04 80.856-158.04 170.14 0-89.28 68.904-163.51 158.04-170.14-102.1 20.16-199.94 138.1-85.68 266.76z"/>
                <path d="m313.77 120.9c-7.705-55.224-50.113-93.888-127.37-116.06 91.152 4.032 163.08 79.2 163.08 170.42 0 94.248-70.992 167.11-163.22 171.29-8.712 0.433-17.424-1.08-25.92-3.744v-192.24c2.808-4.248 2.808-8.496 0-12.744v-40.896h9.432c-3.672-2.448-6.768-4.32-9.432-5.472v-11.808c49.464 18.864 72.433 21.024 68.977 6.264 4.319 12.168 0.576 17.712-11.232 16.488-13.608-2.088-22.032-1.152-25.344 2.88 24.408 12.096 37.44 23.832 39.096 35.208 2.304 19.152-6.768 40.248-27.216 63.36-12.888 16.057-6.192 33.12 14.615 35.855 64.583-3.168 96.121-42.839 94.537-118.8zm-153.43 221.9c-19.728-6.119-37.44-18.432-46.08-27-15.264-15.84-25.632-41.184-29.448-77.76 0-0.216-0.072-0.433-0.072-0.647v-12.385c2.376-29.376 21.96-50.04 58.896-61.92 8.352-4.104 13.968-8.28 16.704-12.528zm0-204.98c-1.152-1.872-2.952-3.744-5.184-5.688-2.016-2.016-6.336-4.032-12.888-5.976-14.976-0.432-23.112 3.312-24.408 11.304-25.416-11.304-26.136-24.192-2.232-38.592 4.68-1.8 11.52-2.448 20.592-2.088-3.744-16.56 2.592-22.968 19.08-19.08 1.728 0.648 3.384 1.296 5.04 1.944v11.808c-7.56-3.528-10.512-1.728-8.928 5.472h8.928z"/>
            </g>
            <path d="m79.704 273.88c3.24 25.704 17.208 45.072 38.592 64.08l-7.704-3.888c-60.768-26.136-103.25-86.545-103.25-156.82 0-89.28 68.904-163.51 158.04-170.14-89.136 6.624-158.04 80.856-158.04 170.14 0-89.28 68.904-163.51 158.04-170.14-102.1 20.16-199.94 138.1-85.68 266.76z" fill="url(#e)"/>
            <path d="m312.77 122.9c-7.705-55.224-50.113-93.888-127.37-116.06 91.152 4.032 163.08 79.2 163.08 170.42 0 94.248-70.992 167.11-163.22 171.29-8.712 0.433-17.424-1.08-25.92-3.744v-192.24c2.808-4.248 2.808-8.496 0-12.744v-40.896h9.432c-3.672-2.448-6.768-4.32-9.432-5.472v-11.808c49.464 18.864 72.433 21.024 68.977 6.264 4.319 12.168 0.576 17.712-11.232 16.488-13.608-2.088-22.032-1.152-25.344 2.88 24.408 12.096 37.44 23.832 39.096 35.208 2.304 19.152-6.768 40.248-27.216 63.36-12.888 16.057-6.192 33.12 14.616 35.855 64.582-3.168 96.12-42.839 94.536-118.8zm-153.43 221.9c-19.728-6.119-37.44-18.432-46.08-27-15.264-15.84-25.632-41.184-29.448-77.76 0-0.216-0.072-0.433-0.072-0.647v-12.385c2.376-29.376 21.96-50.04 58.896-61.92 8.352-4.104 13.968-8.28 16.704-12.528zm0-204.98c-1.152-1.872-2.952-3.744-5.184-5.688-2.016-2.016-6.336-4.032-12.888-5.976-14.976-0.432-23.112 3.312-24.408 11.304-25.416-11.304-26.136-24.192-2.232-38.592 4.68-1.8 11.52-2.448 20.592-2.088-3.744-16.56 2.592-22.968 19.08-19.08 1.728 0.648 3.384 1.296 5.04 1.944v11.808c-7.56-3.528-10.512-1.728-8.928 5.472h8.928z" fill="url(#d)"/>
        </g>
    </switch>
</svg>