<?xml version="1.0" encoding="UTF-8"?>
<svg viewBox="0 0 255.13 255.13" xmlns="http://www.w3.org/2000/svg">
    <path d="m255.88 127.87c0 70.455-57.11 127.56-127.57 127.56-70.45 0-127.57-57.11-127.57-127.56 0-70.45 57.116-127.57 127.57-127.57 70.456 0 127.57 57.116 127.57 127.57" fill="#1A1918"/>
    <path d="M130.46 78.229l33.011 81.476-49.863-39.278L130.46 78.23zm58.644 100.245L138.326 56.272c-1.45-3.524-4.348-5.39-7.866-5.39-3.525 0-6.634 1.866-8.084 5.39l-55.732 134.04h19.065l22.062-55.265 65.84 53.19c2.647 2.141 4.558 3.11 7.041 3.11 4.974 0 9.322-3.73 9.322-9.111 0-.876-.31-2.267-.87-3.762z" fill="#FFF"/>
</svg>