<?xml version="1.0" encoding="UTF-8"?>
<svg viewBox="0 0 1200 1200" xmlns="http://www.w3.org/2000/svg">
    <circle cx="600" cy="600" r="600" fill="#abe1e1"/>
    <ellipse cx="428.08" cy="768.44" rx="79.63" ry="20.09" fill="#1d1e1c" opacity="0.2"/>
    <ellipse cx="263.32" cy="764.08" rx="79.63" ry="20.09" fill="#1d1e1c" opacity="0.2"/>
    <ellipse cx="302.5" cy="882.57" rx="79.63" ry="20.09" fill="#1d1e1c" opacity="0.2"/>
    <ellipse cx="151.32" cy="825.99" rx="79.63" ry="20.09" fill="#1d1e1c" opacity="0.2"/>
    <polygon points="341.12 757.99 326.57 757.99 326.57 438.14 467.73 514.14 460.83 526.95 341.12 462.5" fill="#1d1e1c"/>
    <polygon points="230.55 821.15 216.12 819.32 256.33 501.36 469.78 533.42 467.62 547.8 268.9 517.96" fill="#1d1e1c"/>
    <polygon points="365.9 865.82 359.01 577.81 462.25 547.85 466.31 561.82 373.82 588.66 380.45 865.47" fill="#1d1e1c"/>
    <polygon points="481.21 745.01 433.6 602.18 500.87 586.11 504.25 600.26 452.42 612.64 495.01 740.41" fill="#1d1e1c"/>
    <path d="M482.29,743.44s-14-24-35.38-8.73-9,36.37-9,36.37,7,6.54,30.78,7.27,29.4,0,33.86-5.09S492.47,730,492.47,730Z" fill="#1d1e1c"/>
    <path d="M209.36,796.36s-22.43-33.4-52.14-12.15-12.51,50.61-12.51,50.61,9.72,7.18,42.82,7.21c43.07.05,42.22-12.88,45.26-21.79,5.09-15-10.72-42.56-10.72-42.56Z" fill="#1d1e1c"/>
    <path d="m324.49 743.1s-29.7-42.13-59.42-20.87-12.51 50.6-12.51 50.6 9.73 7.18 42.83 7.22c43.07 0 45.13-8.52 48.16-17.44 5.09-15-13.62-46.91-13.62-46.91z" fill="#1d1e1c"/>
    <path d="M364.49,856.51s-26.78-40.68-56.5-19.42-12.51,50.6-12.51,50.6,9.73,8.63,42.83,8.67c43.06,0,43.64-13.83,43.79-23.25.74-46-15.07-42.55-15.07-42.55Z" fill="#1d1e1c"/>
    <polygon points="857.49 759.92 872.04 759.92 872.04 440.07 730.89 516.08 737.78 528.89 857.49 464.43" fill="#1d1e1c"/>
    <polygon points="968.06 823.08 982.5 821.26 942.28 503.3 728.84 535.35 731 549.74 929.72 519.89" fill="#1d1e1c"/>
    <polygon points="832.71 867.75 839.6 579.74 736.36 549.78 732.31 563.75 824.79 590.59 818.16 867.4" fill="#1d1e1c"/>
    <polygon points="717.41 746.94 765.02 604.11 697.74 588.04 694.36 602.19 746.19 614.58 703.6 742.34" fill="#1d1e1c"/>
    <path d="M716.32,745.37s14-24,35.39-8.73,9,36.37,9,36.37-7,6.55-30.78,7.28-29.4,0-33.87-5.1S706.14,732,706.14,732Z" fill="#1d1e1c"/>
    <path d="m989.25 798.29s22.43-33.4 52.15-12.14 12.51 50.6 12.51 50.6-9.73 7.18-42.83 7.22c-43.07 0-42.22-12.88-45.25-21.8-5.09-15 10.71-42.55 10.71-42.55z" fill="#1d1e1c"/>
    <path d="m874.13 745s29.69-42.13 59.41-20.88 12.51 50.61 12.51 50.61-9.73 7.17-42.83 7.21c-43.06 0-45.12-8.51-48.16-17.43-5.09-15 13.63-46.92 13.63-46.92z" fill="#1d1e1c"/>
    <path d="M834.12,858.44s26.79-40.67,56.5-19.42,12.51,50.61,12.51,50.61-9.72,8.63-42.82,8.67c-43.07,0-43.65-13.84-43.8-23.26-.73-46,15.08-42.55,15.08-42.55Z" fill="#1d1e1c"/>
    <path d="M761.6,493.81c0,87.82-70,134.27-156.39,134.27s-152-46.45-152-134.27,65.65-118.26,152-118.26S761.6,406,761.6,493.81Z" fill="#38a9b4"/>
    <path d="m603.3 635.36c-45.68 0-84.78-12.41-113-35.89-30.3-25.12-46.3-61.65-46.3-105.66 0-82.13 55.08-125.54 159.3-125.54 105.54 0 163.7 44.59 163.7 125.54 0 43.84-16.79 80.4-48.54 105.75-28.95 23.08-69.84 35.8-115.16 35.8zm0-252.54c-96 0-144.75 37.34-144.75 111 0 78.34 55.46 127 144.75 127 90.59 0 149.12-49.85 149.12-127 0-91.74-81.09-111-149.12-111z" fill="#1d1e1c"/>
    <ellipse cx="546.29" cy="400.56" rx="97.47" ry="100.8" fill="#fff"/>
    <path d="m544.38 506.45c-56.55 0-102.56-47.5-102.56-105.89s46-105.89 102.56-105.89 102.62 47.5 102.62 105.89-46.06 105.89-102.62 105.89zm0-201.59c-50.94 0-92.38 42.93-92.38 95.7s41.44 95.71 92.38 95.71 92.38-42.93 92.38-95.71-41.44-95.7-92.38-95.7z" fill="#1d1e1c"/>
    <ellipse cx="691.9" cy="417.01" rx="80.41" ry="78.86" fill="#fff"/>
    <path d="m690 501c-47.15 0-85.51-37.67-85.51-84s38.36-84 85.51-84 85.51 37.67 85.51 84-38.36 84-85.51 84zm0-157.73c-41.53 0-75.32 33.09-75.32 73.77s33.79 73.77 75.32 73.77 75.32-33.09 75.32-73.77-33.79-73.8-75.32-73.8z" fill="#1d1e1c"/>
    <circle cx="552.6" cy="405.88" r="44.9" fill="#1d1e1c"/>
    <circle cx="576.67" cy="399.05" r="12.37" fill="#fff"/>
    <ellipse cx="698.35" cy="421.68" rx="36.39" ry="34.92" fill="#1d1e1c"/>
    <circle cx="691.33" cy="415.45" r="10.01" fill="#fff"/>
    <ellipse cx="771.92" cy="771.11" rx="79.63" ry="20.09" fill="#1d1e1c" opacity="0.2"/>
    <ellipse cx="936.68" cy="766.75" rx="79.63" ry="20.09" fill="#1d1e1c" opacity="0.2"/>
    <ellipse cx="897.5" cy="885.24" rx="79.63" ry="20.09" fill="#1d1e1c" opacity="0.2"/>
    <ellipse cx="1048.7" cy="828.66" rx="79.63" ry="20.09" fill="#1d1e1c" opacity="0.2"/>
</svg>