<svg viewBox="0 0 129.44 57.482" xmlns="http://www.w3.org/2000/svg"><g fill="#fff"><path d="m44.498 22.975c5.352 0 9.705-4.355 9.705-9.708s-4.354-9.708-9.705-9.708c-4.186 0-7.751 2.667-9.112 6.386l-4.704-1.075c0.078-0.435 0.126-0.881 0.126-1.338 0-4.153-3.377-7.532-7.528-7.532-4.154 0-7.534 3.379-7.534 7.531 0 3.517 2.428 6.469 5.694 7.293l-0.296 2.273c-8.573-0.392-16.799 4.753-19.907 13.228-3.836 10.456 1.552 22.084 12.011 25.922 2.286 0.837 4.628 1.234 6.933 1.234 8.24 0 15.998-5.078 18.995-13.249v-1e-3c1.857-5.068 1.63-10.555-0.639-15.45-1.162-2.507-2.791-4.703-4.781-6.501l3.625-2.432c1.776 1.918 4.305 3.127 7.117 3.127zm0-14.921c2.873 0 5.209 2.338 5.209 5.212s-2.337 5.212-5.209 5.212c-2.875 0-5.214-2.338-5.214-5.212 0-2.873 2.339-5.212 5.214-5.212zm-25.754-0.523c0-2.5 2.035-4.534 4.536-4.534 2.498 0 4.53 2.034 4.53 4.534 0 2.499-2.032 4.532-4.53 4.532-2.502 1e-3 -4.536-2.032-4.536-4.532zm16.259 22.889c1.831 3.952 2.014 8.38 0.515 12.47-3.096 8.441-12.486 12.79-20.929 9.699-8.442-3.098-12.79-12.483-9.694-20.922 2.419-6.597 8.679-10.696 15.328-10.696 0.138 0 0.276 5e-3 0.413 9e-3l-0.369 2.83c-7e-3 0-0.013-1e-3 -0.02-1e-3 -3.358 0-6.09 2.728-6.09 6.08 0 3.355 2.732 6.085 6.09 6.085 3.353 0 6.081-2.729 6.082-6.085 0-0.82-0.165-1.601-0.461-2.315l4.524-3.035c1.951 1.555 3.531 3.551 4.611 5.881zm-12.833-6.296 0.389-2.981c1.092 0.159 2.184 0.429 3.26 0.824 1.015 0.372 1.979 0.837 2.883 1.385l-3.845 2.58c-0.709-0.824-1.634-1.456-2.687-1.808zm-1.922 2.682c1.7 0 3.084 1.383 3.084 3.082 0 1.702-1.384 3.088-3.084 3.088-1.706 0-3.093-1.385-3.093-3.088 0-1.7 1.387-3.082 3.093-3.082zm11.947-5.797c-1.523-1.119-3.212-2.032-5.036-2.7-1.352-0.496-2.724-0.834-4.096-1.03l0.29-2.222c2.983-0.029 5.55-1.802 6.742-4.346l4.815 1.1c-0.072 0.476-0.121 0.959-0.121 1.455 0 1.849 0.529 3.572 1.429 5.044l-4.023 2.699z"/><path d="m58.414 37.746c1.511 0 2.714 0.336 3.582 0.699l0.867-3.386c-0.756-0.392-2.435-0.839-4.645-0.839-5.708 0-10.296 3.582-10.296 10.017 0 5.372 3.357 9.429 9.876 9.429 2.295 0 4.057-0.42 4.841-0.812l-0.643-3.33c-0.839 0.336-2.267 0.616-3.554 0.616-3.805 0-6.043-2.379-6.043-6.155-1e-3 -4.197 2.629-6.239 6.015-6.239z"/><path d="m73.268 39.397c-2.267 0-3.665 1.315-4.225 2.182h-0.084l-0.196-1.874h-3.693c0.056 1.202 0.112 2.657 0.112 4.364l1e-3 9.317h4.252v-7.89c0-0.392 0.057-0.811 0.168-1.063 0.28-0.783 0.979-1.595 2.154-1.595 1.539 0 2.154 1.204 2.154 2.966v7.582h4.253v-8.114c1e-3 -4.029-2.098-5.875-4.896-5.875z"/><path d="m87.704 39.396c-4.757 0-6.911 3.833-6.911 7.302 0 4.281 2.658 6.967 7.302 6.967 1.846 0 3.554-0.28 4.952-0.839l-0.56-2.882c-1.146 0.364-2.321 0.56-3.777 0.56-1.986 0-3.721-0.84-3.861-2.602h8.813c0.055-0.307 0.14-0.951 0.14-1.679 1e-3 -3.385-1.678-6.827-6.098-6.827zm-2.882 5.596c0.112-1.147 0.839-2.77 2.63-2.77 1.958 0 2.407 1.735 2.407 2.77h-5.037z"/><path d="m100.15 42.222h-0.112l-0.14-2.518h-3.665c0.055 1.175 0.112 2.49 0.112 4.505h-1e-3v9.176h4.252v-6.939c0-0.336 0.028-0.671 0.085-0.951 0.279-1.315 1.343-2.154 2.91-2.154 0.476 0 0.84 0.055 1.147 0.112v-4.001c-0.307-0.056-0.503-0.056-0.895-0.056-1.315 0-2.993 0.84-3.693 2.826z"/><path d="m112.32 35.787-4.169 0.951v2.966h-1.818v3.133h1.818v5.596c0 1.931 0.392 3.245 1.175 4.057 0.672 0.7 1.819 1.176 3.19 1.176 1.204 0 2.211-0.14 2.77-0.364l-0.029-3.218c-0.307 0.055-0.727 0.111-1.259 0.111-1.287 0-1.679-0.755-1.679-2.406v-4.952h3.049v-3.133h-3.049l1e-3 -3.917z"/><path d="m129.25 50.056v-4.756c0-3.218-1.455-5.904-6.015-5.904-2.49 0-4.365 0.671-5.316 1.203l0.783 2.742c0.895-0.56 2.379-1.035 3.777-1.035 2.098 0 2.49 1.035 2.49 1.762v0.196c-4.84-0.027-8.029 1.679-8.029 5.232 0 2.182 1.651 4.197 4.42 4.197 1.623 0 3.022-0.588 3.917-1.679h0.085l0.252 1.371h3.832c-0.139-0.755-0.196-2.014-0.196-3.329zm-4.139-1.65c0 0.252-0.028 0.504-0.084 0.727-0.28 0.867-1.148 1.567-2.211 1.567-0.951 0-1.679-0.532-1.679-1.623 0-1.651 1.735-2.182 3.973-2.154h1e-3v1.483z"/></g></svg>
