<svg viewBox="0 0 157.33 157.33" xmlns="http://www.w3.org/2000/svg">
<path d="m78.701 0.013672a78.631 78.638 0 0 0-78.631 78.637 78.631 78.638 0 0 0 0.12891 1.7949h-0.18945v76.887h82.68v-0.32812a78.631 78.638 0 0 0 74.643-78.354 78.631 78.638 0 0 0-78.631-78.637z" fill="#c4d600" stroke-width="10.153"/>
<path d="m102.09 47.566a33.363 33.495 0 0 0-8.0996 1.2461 33.363 33.495 0 0 0-10.453 5.2109 26.372 26.372 0 0 0-17.461-6.0527 26.372 26.372 0 0 0-23.814 17.018 24.268 24.288 0 0 0-13.848 6.668 24.268 24.288 0 0 0-7.291 17.754 24.268 24.288 0 0 0 24.486 23.84 24.268 24.288 0 0 0 3.8809-0.35352 24.268 24.288 0 0 0 17.068-12.07l20.365-36.34a23.412 23.989 0 0 1 0.001953-0.001953 23.412 23.989 0 0 1 15.824-7.0938 23.412 23.989 0 0 1 24.043 23.098l0.01562 0.88281a23.412 23.989 0 0 1-1.1172 7.3086 23.412 23.989 0 0 1-22.08 16.68 23.412 23.989 0 0 1-13.5-4.2617l-0.009766 0.01367a4.7876 4.7851 0 0 0-3.25-1.1602 4.7876 4.7851 0 0 0-4.6543 4.8711 4.7876 4.7851 0 0 0 2.4062 4.0527l-0.029296 0.04102a33.363 33.495 0 0 0 18.746 5.627 33.363 33.495 0 0 0 30.541-20.764 33.363 33.495 0 0 0 2.5137-12.73l-0.02344-1.2324a33.363 33.495 0 0 0-34.262-32.25zm-35.869 10.08a17.154 16.761 0 0 1 10.727 3.3848l-17.996 33.979-0.001953-0.001954a14.43 14.077 0 0 1-0.93359 1.7656 14.43 14.077 0 0 1-12.047 6.5332 14.43 14.077 0 0 1-14.561-13.818 14.43 14.077 0 0 1 5.5508-11.297 14.43 14.077 0 0 1 8.4785-3.0332 14.43 14.077 0 0 1 9.2383 2.9648l0.056641-0.066406a5.0262 4.9315 0 0 0 3.0723 1.0078 5.0262 4.9315 0 0 0 4.9805-4.9316l-0.003906-0.18164a5.0262 4.9315 0 0 0-1.666-3.4727l0.00586-0.00586a24.268 24.288 0 0 0-0.072266-0.052734 5.0262 4.9315 0 0 0-0.44922-0.33984 24.268 24.288 0 0 0-8.5039-4.3691 17.154 16.761 0 0 1 14.125-8.0645z" fill="#fff" stroke-width="22.225"/>
<path d="m68.618 76.945-10.523 19.621" fill="#00f" opacity=".42263" stroke-width="10"/>
<path d="m69.76 105.94-49.923-35.753" fill="#00f" opacity=".42263" stroke-width="10"/>
<path d="m54.479 93.75 18.519 10.51" fill="#00f" opacity=".42263" stroke-width="10"/>
<path d="m75.258 59.602 19.761 9.6745" fill="#00f" opacity=".42263" stroke-width="10"/>
</svg>
