<svg viewBox="0 0 1364 1364" xmlns="http://www.w3.org/2000/svg">
<g transform="translate(-.86218 -.53161)">
<ellipse cx="683.11" cy="682.64" rx="682.25" ry="682.04" fill="#fff" stroke-width="141"/>
<g fill="#333cb5">
<ellipse cx="682.71" cy="682.79" rx="363.44" ry="362.77" stroke-width="51.005"/>
<path d="m301.44 905.5-0.26758 0.15489a442.71 444.09 0 0 0 381.68 219.46 442.71 444.09 0 0 0 384.97-224.91l-68.393-39.636a396.8 384.14 0 0 1-17.719 34.78 396.8 384.14 0 0 1-28.836 41.779 396.8 384.14 0 0 1-34.223 37.779 396.8 384.14 0 0 1-39.023 33.131 396.8 384.14 0 0 1-43.156 27.916 396.8 384.14 0 0 1-46.553 22.223 396.8 384.14 0 0 1-49.148 16.153 396.8 384.14 0 0 1-50.906 9.8027 396.8 384.14 0 0 1-51.793 3.2858 396.8 384.14 0 0 1-51.793-3.2858 396.8 384.14 0 0 1-50.908-9.8027 396.8 384.14 0 0 1-49.148-16.153 396.8 384.14 0 0 1-46.551-22.223 396.8 384.14 0 0 1-43.158-27.916 396.8 384.14 0 0 1-39.023-33.131 396.8 384.14 0 0 1-34.223-37.779 396.8 384.14 0 0 1-21.83-31.629z" stroke-width="62.284"/>
<path d="m233.69 944.79-1.7598 1.0156a523.09 522.51 0 0 0 450.75 259.59 523.09 522.51 0 0 0 454.94-264.84l-70.018-40.424a472.54 455.29 0 0 1-32.082 56.605 472.54 455.29 0 0 1-40.404 52.004 472.54 455.29 0 0 1-47.674 45.934 472.54 455.29 0 0 1-53.973 38.928 472.54 455.29 0 0 1-59.176 31.133 472.54 455.29 0 0 1-63.17 22.701 472.54 455.29 0 0 1-65.881 13.809 472.54 455.29 0 0 1-67.25 4.6328 472.54 455.29 0 0 1-67.25-4.6328 472.54 455.29 0 0 1-65.881-13.809 472.54 455.29 0 0 1-63.17-22.701 472.54 455.29 0 0 1-59.174-31.133 472.54 455.29 0 0 1-53.975-38.928 472.54 455.29 0 0 1-47.674-45.934 472.54 455.29 0 0 1-40.404-52.004 472.54 455.29 0 0 1-6.7715-11.949z" stroke-width="211.76"/>
<path d="m163.73 986.57-0.54297 0.31445a602.55 602.55 0 0 0 519.91 298.4 602.55 602.55 0 0 0 523.55-304.4l-70.922-40.947a549.27 524.31 0 0 1-22.621 43.787 549.27 524.31 0 0 1-39.918 57.023 549.27 524.31 0 0 1-47.371 51.564 549.27 524.31 0 0 1-54.02 45.221 549.27 524.31 0 0 1-59.738 38.104 549.27 524.31 0 0 1-64.439 30.332 549.27 524.31 0 0 1-68.035 22.047 549.27 524.31 0 0 1-70.469 13.379 549.27 524.31 0 0 1-71.693 4.4863 549.27 524.31 0 0 1-71.695-4.4863 549.27 524.31 0 0 1-70.467-13.379 549.27 524.31 0 0 1-68.035-22.047 549.27 524.31 0 0 1-64.439-30.332 549.27 524.31 0 0 1-59.738-38.104 549.27 524.31 0 0 1-54.02-45.221 549.27 524.31 0 0 1-47.373-51.564 549.27 524.31 0 0 1-37.926-54.18z" stroke-width="65.444"/>
<path d="m95.359 1025-1.3887 0.8008a682.53 682.26 0 0 0 588.82 339.52 682.53 682.26 0 0 0 592.55-344.11l-69.617-40.178a638.36 634.19 0 0 1-2.8321 6.25 638.36 634.19 0 0 1-39.881 65.537 638.36 634.19 0 0 1-47.541 60.285 638.36 634.19 0 0 1-54.508 54.152 638.36 634.19 0 0 1-60.682 47.23 638.36 634.19 0 0 1-65.969 39.619 638.36 634.19 0 0 1-70.295 31.432 638.36 634.19 0 0 1-73.598 22.783 638.36 634.19 0 0 1-75.824 13.805 638.36 634.19 0 0 1-76.945 4.623 638.36 634.19 0 0 1-76.945-4.623 638.36 634.19 0 0 1-75.824-13.805 638.36 634.19 0 0 1-73.596-22.783 638.36 634.19 0 0 1-70.297-31.432 638.36 634.19 0 0 1-65.969-39.619 638.36 634.19 0 0 1-60.682-47.23 638.36 634.19 0 0 1-54.508-54.152 638.36 634.19 0 0 1-47.541-60.285 638.36 634.19 0 0 1-16.932-27.824z" stroke-width="129.35"/>
<path d="m1067.3 901.88 0.2679 0.15429a442.71 444.09 60 0 0-0.7807-440.28 442.71 444.09 60 0 0-387.26-220.94l-0.12946 79.048a396.8 384.14 60 0 1 38.98-2.045 396.8 384.14 60 0 1 50.6 4.0832 396.8 384.14 60 0 1 49.829 10.748 396.8 384.14 60 0 1 48.204 17.23 396.8 384.14 60 0 1 45.754 23.416 396.8 384.14 60 0 1 42.522 29.204 396.8 384.14 60 0 1 38.563 34.487 396.8 384.14 60 0 1 33.943 39.185 396.8 384.14 60 0 1 28.742 43.211 396.8 384.14 60 0 1 23.051 46.497 396.8 384.14 60 0 1 16.965 48.989 396.8 384.14 60 0 1 10.586 50.64 396.8 384.14 60 0 1 4.03 51.426 396.8 384.14 60 0 1-2.5968 51.334 396.8 384.14 60 0 1-9.1805 50.361 396.8 384.14 60 0 1-15.607 48.527 396.8 384.14 60 0 1-16.477 34.72z" stroke-width="62.284"/>
<path d="m1135.2 940.91 1.7595 1.0162a523.09 522.51 60 0 0-0.5637-520.16 523.09 522.51 60 0 0-456.82-261.57l7.4e-4 80.849a472.54 455.29 60 0 1 65.063-0.51891 472.54 455.29 60 0 1 65.239 8.9892 472.54 455.29 60 0 1 63.617 18.32 472.54 455.29 60 0 1 60.699 27.278 472.54 455.29 60 0 1 56.55 35.681 472.54 455.29 60 0 1 51.245 43.356 472.54 455.29 60 0 1 44.899 50.15 472.54 455.29 60 0 1 37.637 55.924 472.54 455.29 60 0 1 29.613 60.557 472.54 455.29 60 0 1 20.982 63.959 472.54 455.29 60 0 1 11.925 66.057 472.54 455.29 60 0 1 2.6251 66.812 472.54 455.29 60 0 1-6.7251 66.207 472.54 455.29 60 0 1-15.943 64.254 472.54 455.29 60 0 1-24.835 60.993 472.54 455.29 60 0 1-6.9626 11.839z" stroke-width="211.76"/>
<path d="m1206.4 980.61 0.5439 0.313a602.55 602.55 0 0 0-1.5284-599.46 602.55 602.55 0 0 0-525.4-301.21l-4.2e-4 81.894a549.27 524.31 60 0 1 49.231-2.3031 549.27 524.31 60 0 1 69.343 6.0582 549.27 524.31 60 0 1 68.342 15.242 549.27 524.31 60 0 1 66.172 24.172 549.27 524.31 60 0 1 62.868 32.683 549.27 524.31 60 0 1 58.488 40.64 549.27 524.31 60 0 1 53.111 47.897 549.27 524.31 60 0 1 46.821 54.338 549.27 524.31 60 0 1 39.732 59.845 549.27 524.31 60 0 1 31.962 64.333 549.27 524.31 60 0 1 23.647 67.715 549.27 524.31 60 0 1 14.924 69.944 549.27 524.31 60 0 1 5.9515 70.972 549.27 524.31 60 0 1-3.1296 70.787 549.27 524.31 60 0 1-12.152 69.393 549.27 524.31 60 0 1-20.97 66.808 549.27 524.31 60 0 1-27.958 59.935z" stroke-width="65.444"/>
<path d="m1273.9 1020.6 1.3879 0.8022a682.53 682.26 60 0 0-0.3732-679.69 682.53 682.26 60 0 0-594.28-341.11l0.0137 80.379a638.36 634.19 60 0 1 6.8287-0.67233 638.36 634.19 60 0 1 76.697 1.7692 638.36 634.19 60 0 1 75.979 11.029 638.36 634.19 60 0 1 74.151 20.129 638.36 634.19 60 0 1 71.244 28.937 638.36 634.19 60 0 1 67.296 37.321 638.36 634.19 60 0 1 62.368 45.161 638.36 634.19 60 0 1 56.53 52.346 638.36 634.19 60 0 1 49.867 58.763 638.36 634.19 60 0 1 42.476 64.325 638.36 634.19 60 0 1 34.469 68.948 638.36 634.19 60 0 1 25.957 72.568 638.36 634.19 60 0 1 17.067 75.127 638.36 634.19 60 0 1 7.9279 76.595 638.36 634.19 60 0 1-1.3269 76.94 638.36 634.19 60 0 1-10.562 76.167 638.36 634.19 60 0 1-19.643 74.281 638.36 634.19 60 0 1-28.438 71.314 638.36 634.19 60 0 1-15.631 28.575z" stroke-width="129.35"/>
<path d="m681.17 240.37-3.5e-4 -0.30918a444.09 442.71 30 0 0-380.9 220.81 444.09 442.71 30 0 0 2.2912 445.85l68.522-39.412a384.14 396.8 30 0 1-21.261-32.735 384.14 396.8 30 0 1-21.764-45.862 384.14 396.8 30 0 1-15.607-48.527 384.14 396.8 30 0 1-9.1805-50.361 384.14 396.8 30 0 1-2.5978-51.332 384.14 396.8 30 0 1 4.031-51.427 384.14 396.8 30 0 1 10.586-50.64 384.14 396.8 30 0 1 16.964-48.987 384.14 396.8 30 0 1 23.051-46.497 384.14 396.8 30 0 1 28.742-43.211 384.14 396.8 30 0 1 33.943-39.186 384.14 396.8 30 0 1 38.563-34.487 384.14 396.8 30 0 1 42.521-29.203 384.14 396.8 30 0 1 45.755-23.418 384.14 396.8 30 0 1 48.204-17.23 384.14 396.8 30 0 1 49.829-10.748 384.14 396.8 30 0 1 38.307-3.0908z" stroke-width="62.284"/>
<path d="m681.02 162.05 3.2e-4 -2.0318a522.51 523.09 30 0 0-450.19 260.57 522.51 523.09 30 0 0 1.8885 526.4l70.017-40.425a455.29 472.54 30 0 1-32.981-56.087 455.29 472.54 30 0 1-24.835-60.993 455.29 472.54 30 0 1-15.943-64.254 455.29 472.54 30 0 1-6.726-66.206 455.29 472.54 30 0 1 2.6261-66.814 455.29 472.54 30 0 1 11.925-66.057 455.29 472.54 30 0 1 20.982-63.959 455.29 472.54 30 0 1 29.613-60.557 455.29 472.54 30 0 1 37.637-55.924 455.29 472.54 30 0 1 44.899-50.15 455.29 472.54 30 0 1 51.245-43.356 455.29 472.54 30 0 1 56.549-35.68 455.29 472.54 30 0 1 60.7-27.28 455.29 472.54 30 0 1 63.617-18.32 455.29 472.54 30 0 1 65.239-8.9892 455.29 472.54 30 0 1 13.734 0.11034z" stroke-width="211.76"/>
<path d="m679.82 80.574-8.4e-4 -0.62745a602.55 602.55 0 0 0-518.38 301.05 602.55 602.55 0 0 0 1.8428 605.61l70.922-40.947a524.31 549.27 30 0 1-26.61-41.484 524.31 549.27 30 0 1-29.425-63.082 524.31 549.27 30 0 1-20.971-66.807 524.31 549.27 30 0 1-12.152-69.393 524.31 549.27 30 0 1-3.1296-70.787 524.31 549.27 30 0 1 5.9514-70.972 524.31 549.27 30 0 1 14.924-69.944 524.31 549.27 30 0 1 23.648-67.717 524.31 549.27 30 0 1 31.961-64.331 524.31 549.27 30 0 1 39.733-59.847 524.31 549.27 30 0 1 46.82-54.337 524.31 549.27 30 0 1 53.111-47.897 524.31 549.27 30 0 1 58.488-40.64 524.31 549.27 30 0 1 62.868-32.683 524.31 549.27 30 0 1 66.172-24.172 524.31 549.27 30 0 1 68.343-15.244 524.31 549.27 30 0 1 65.884-5.7548z" stroke-width="65.444"/>
<path d="m680.7 2.1346 8.2e-4 -1.603a682.26 682.53 30 0 0-588.45 340.17 682.26 682.53 30 0 0 1.7301 685.22l69.604-40.201a634.19 638.36 30 0 1-3.9966-5.5777 634.19 638.36 30 0 1-36.816-67.306 634.19 638.36 30 0 1-28.438-71.314 634.19 638.36 30 0 1-19.643-74.281 634.19 638.36 30 0 1-10.562-76.167 634.19 638.36 30 0 1-1.3269-76.94 634.19 638.36 30 0 1 7.9269-76.593 634.19 638.36 30 0 1 17.068-75.129 634.19 638.36 30 0 1 25.957-72.568 634.19 638.36 30 0 1 34.469-68.948 634.19 638.36 30 0 1 42.476-64.325 634.19 638.36 30 0 1 49.867-58.763 634.19 638.36 30 0 1 56.529-52.344 634.19 638.36 30 0 1 62.369-45.163 634.19 638.36 30 0 1 67.296-37.321 634.19 638.36 30 0 1 71.244-28.937 634.19 638.36 30 0 1 74.151-20.129 634.19 638.36 30 0 1 75.979-11.029 634.19 638.36 30 0 1 32.562-0.75108z" stroke-width="129.35"/>
</g>
<path d="m824.28 490.42c-9.7911 0.13265-19.55 0.8633-28.6 2.1797-4.5249 0.65819-8.8732 1.4634-12.959 2.4141s-7.9092 2.0462-11.387 3.2871c-6.11 2.1802-12.104 4.7796-17.906 7.7461-5.8021 2.9665-11.412 6.2999-16.758 9.9512-5.3458 3.6513-10.427 7.6188-15.168 11.854-4.7411 4.2348-9.1429 8.7363-13.131 13.453-4.9707 5.8793-9.4302 10.691-9.9102 10.693-0.48 1e-3 -2.808-3.4454-5.1719-7.6621-1.182-2.1083-3.475-5.2282-6.2168-8.5566-2.7418-3.3285-5.9321-6.8668-8.9102-9.8086-3.3778-3.3367-7.0396-6.4338-10.982-9.293s-8.1667-5.479-12.67-7.8594-9.2845-4.5213-14.344-6.4219c-5.0592-1.9005-10.395-3.5609-16.006-4.9805-5.6107-1.4196-11.497-2.5997-17.654-3.5371s-12.587-1.6318-19.287-2.0859c-6.7002-0.45415-13.672-0.66698-20.91-0.63672-7.2382 0.0303-14.744 0.30255-22.516 0.81836-6.4765 0.42984-12.385 0.95395-17.91 1.6055-5.5249 0.65152-10.666 1.43-15.605 2.373-4.9393 0.94307-9.6768 2.051-14.396 3.3555s-9.421 2.8072-14.287 4.543c-8.5573 3.0526-13.634 4.973-18.336 7.3027-4.7017 2.3297-9.0281 5.0671-16.082 9.75-3.0728 2.0399-6.0315 4.2036-8.875 6.4902-2.8435 2.2867-5.5726 4.6979-8.1875 7.2324s-5.1148 5.1932-7.502 7.9766-4.6603 5.6895-6.8203 8.7227c-4.3201 6.0663-8.1874 12.635-11.604 19.707s-6.3804 14.649-8.8984 22.734c-1.5593 5.0072-2.4062 8.0124-2.666 9.9551-0.12991 0.97137-0.11481 1.678 0.0332 2.2344s0.42765 0.96241 0.82227 1.3379c0.70861 0.67424 12.314 2.9268 27.576 5.5234 15.262 2.5966 34.183 5.5376 49.523 7.5938 0.61257 0.0821 1.3415-0.57145 2.1426-1.8867 0.80109-1.3153 1.6726-3.2925 2.5723-5.8574 2.4101-6.8716 4.6845-12.112 7.4102-16.715 1.3628-2.3014 2.8395-4.4417 4.502-6.5488 1.6625-2.1071 3.5118-4.1805 5.6211-6.3418 3.3912-3.4748 7.1012-6.5371 11.16-9.1992 4.0589-2.6622 8.4653-4.9234 13.248-6.7949 4.7827-1.8715 9.9413-3.3542 15.504-4.457 5.5626-1.1028 11.529-1.8256 17.928-2.1816 6.1472-0.34204 12-0.3421 17.557 2e-3 5.5568 0.34406 10.819 1.0308 15.783 2.0605 4.9646 1.0298 9.6333 2.404 14.004 4.1192 4.3706 1.7151 8.444 3.7718 12.219 6.1719 2.7771 1.7658 5.192 3.8149 7.2852 6.2324 2.0932 2.4175 3.8646 5.2028 5.3516 8.4414 1.4869 3.2386 2.69 6.931 3.6484 11.16 0.95847 4.2291 1.6719 8.9958 2.1797 14.385l0.91016 9.666h-26.535c-10.921 0-21.724 0.27487-32.236 0.80468-10.513 0.52981-20.736 1.3161-30.498 2.3398-9.7618 1.0237-19.062 2.2839-27.73 3.7656-8.6685 1.4817-16.705 3.184-23.938 5.0879-9.0242 2.3754-17.514 5.2309-25.465 8.5625-3.9754 1.6658-7.8162 3.4498-11.521 5.3535-3.7053 1.9037-7.2749 3.9274-10.709 6.0684-3.434 2.141-6.733 4.3999-9.8945 6.7773s-6.1863 4.8732-9.0742 7.4863c-2.8879 2.6132-5.6389 5.3432-8.252 8.1914-2.6131 2.8482-5.0887 5.8141-7.4258 8.8965-3.7769 4.9814-6.9922 9.8684-9.6894 14.799-2.6973 4.9304-4.8761 9.9048-6.584 15.057s-2.9451 10.482-3.7539 16.127c-0.80882 5.6454-1.1895 11.606-1.1895 18.018 0 6.5811 0.46787 12.822 1.4297 18.789 0.96182 5.967 2.4173 11.661 4.3887 17.146s4.4596 10.763 7.4883 15.9c3.0287 5.1374 6.5968 10.135 10.73 15.057 2.529 3.0112 5.1217 5.8518 7.791 8.5293 2.6693 2.6774 5.4164 5.1917 8.2578 7.5527s5.7768 4.567 8.8223 6.6289c3.0454 2.0619 6.2012 3.9797 9.4824 5.7598 3.2813 1.78 6.6874 3.424 10.236 4.9394 3.549 1.5154 7.2394 2.9018 11.088 4.1699 7.697 2.5362 16.025 4.5955 25.111 6.2461 3.3367 0.60615 8.5788 1.0589 14.854 1.3594 6.2748 0.30049 13.582 0.44756 21.051 0.44336 7.4683-4e-3 15.098-0.1589 22.016-0.46679 6.9174-0.3079 13.122-0.7683 17.744-1.3789 7.5091-0.99205 14.592-2.2808 21.148-3.8301 6.5566-1.5492 12.587-3.3583 17.994-5.3906 5.4068-2.0323 10.19-4.2873 14.25-6.7285 4.0598-2.4412 7.3965-5.0697 9.9121-7.8457 2.5511-2.8152 4.8157-4.9146 5.0332-4.666 0.21754 0.24855 1.2217 5.2525 2.2305 11.119l1.834 10.666 42.58 0.35156c23.419 0.19381 43.087-0.1511 43.703-0.76758 0.30823-0.30823 0.28486-1.8529 0-4.0918-0.28485-2.2389-0.83186-5.1711-1.5723-8.2598-1.4808-6.1773-2.696-11.682-2.7012-12.232-4e-3 -0.43973 0.21971-0.72669 0.58398-0.87695 0.36427-0.15027 0.86791-0.16301 1.4277-0.0566 1.1196 0.21272 2.4573 0.90502 3.3223 1.9473 1.5824 1.9067 6.4953 5.3971 12.24 8.9336 5.745 3.5365 12.323 7.119 17.236 9.2109 5.2931 2.2536 10.658 4.2105 16.139 5.8789 5.4811 1.6684 11.078 3.0476 16.84 4.1484s11.686 1.9238 17.82 2.4746c6.134 0.55081 12.477 0.82918 19.076 0.84765 7.8313 0.0219 15.395-0.37555 22.688-1.1914 7.2929-0.81586 14.316-2.0501 21.062-3.6992 6.7468-1.6491 13.219-3.7135 19.412-6.1914 6.1931-2.4779 12.107-5.3678 17.738-8.6699 5.6317-3.3022 10.98-7.0168 16.043-11.139 5.0626-4.1219 9.8385-8.6527 14.324-13.59 4.4858-4.9372 8.6827-10.279 12.584-16.027 3.9013-5.7479 7.5073-11.901 10.816-18.455 2.6412-5.2312 5.3175-11.473 7.793-17.947 2.4755-6.4738 4.7516-13.18 6.5938-19.334 1.8422-6.1541 3.2491-11.757 3.9902-16.029 0.37057-2.136 0.57441-3.938 0.58204-5.3106 8e-3 -1.3725-0.17997-2.3147-0.59375-2.7285-0.74586-0.74585-18.944-4.1398-37.383-7.2637s-37.121-5.978-38.832-5.6484c-0.65404 0.12596-1.4851 1.3885-2.459 3.7031-0.9739 2.3146-2.0899 5.6814-3.3125 10.016-2.1122 7.4881-4.6699 14.555-7.5898 21.078-2.92 6.523-6.2024 12.503-9.7637 17.812-1.7806 2.6549-3.6312 5.1422-5.541 7.4473-1.9098 2.3051-3.8784 4.4274-5.8965 6.3516-2.0181 1.9242-4.0858 3.6498-6.1914 5.1621-2.1056 1.5123-4.2496 2.8114-6.4219 3.8809-4.5788 2.2541-9.3917 3.9351-14.33 5.0449-4.9384 1.1098-10.003 1.6484-15.082 1.6152-5.079-0.0331-10.173-0.63784-15.174-1.8125-5.0008-1.1746-9.9078-2.9196-14.611-5.2344-2.8954-1.4249-5.6682-3.1148-8.3144-5.0606-2.6463-1.9458-5.1667-4.1476-7.5527-6.5938-2.3861-2.4462-4.6391-5.1365-6.7539-8.0625s-4.0914-6.0873-5.9238-9.4727c-1.8324-3.3854-3.5197-6.9961-5.0586-10.82s-2.9278-7.861-4.1621-12.104c-1.2343-4.2425-2.3138-8.6898-3.2324-13.33-0.91858-4.6403-1.6778-9.4746-2.2695-14.492-0.48774-4.1356-0.78088-9.7459-0.90235-16.027-0.12147-6.2814-0.0711-13.234 0.12696-20.051 0.19801-6.8166 0.54491-13.499 1.0156-19.24s1.0651-10.542 1.7617-13.598c1.1247-4.9328 2.371-9.5556 3.752-13.906 1.381-4.3507 2.8971-8.429 4.5664-12.271s3.4906-7.4492 5.4805-10.857c1.9898-3.4082 4.1478-6.6181 6.4902-9.666 2.4452-3.1817 5.0559-6.0647 7.8457-8.6602 2.7898-2.5955 5.759-4.9034 8.9199-6.9297s6.5137-3.7719 10.072-5.2461 7.3239-2.6762 11.307-3.6152c3.8046-0.89701 7.5706-1.4575 11.279-1.6934s7.3602-0.14722 10.93 0.25586c3.5694 0.40308 7.0567 1.1208 10.443 2.1406 3.3866 1.0198 6.6716 2.3407 9.832 3.9551 3.1604 1.6144 6.1972 3.5204 9.0879 5.707 2.8907 2.1867 5.6354 4.6558 8.2129 7.3926s4.9882 5.7431 7.209 9.0078c2.2208 3.2647 4.2516 6.7862 6.0723 10.557 2.617 5.4195 5.6061 13.376 7.9414 20.664 2.3353 7.288 4.0176 13.909 4.0176 16.656 0 1.6289 0.13386 2.8572 0.76563 3.7051 0.63177 0.84784 1.7605 1.3149 3.748 1.4199 1.9875 0.10503 4.8332-0.15243 8.9004-0.75195 4.0672-0.59953 9.3556-1.5408 16.227-2.8066 14.13-2.6032 30.191-5.4444 35.691-6.3125 3.9441-0.62249 6.9411-1.1138 9.2012-1.6055 2.2601-0.4917 3.7839-0.98381 4.7793-1.6074 0.99538-0.62361 1.4633-1.3782 1.6133-2.3965s-0.017-2.299-0.29297-3.9746c-0.84902-5.1549-1.9294-10.288-3.2207-15.365-1.2913-5.0776-2.7952-10.101-4.4941-15.037s-3.5921-9.7851-5.6641-14.516-4.3221-9.342-6.7324-13.803c-2.4103-4.4608-4.9813-8.7715-7.6953-12.898-2.714-4.1269-5.5716-8.0699-8.5547-11.799s-6.0911-7.2429-9.3086-10.51c-3.2175-3.2669-6.5437-6.2866-9.9609-9.0274-2.741-2.1983-6.0609-4.5275-9.7051-6.8496s-7.6127-4.6379-11.648-6.8086-8.139-4.1972-12.055-5.9414c-3.9157-1.7442-7.6437-3.2056-10.928-4.248-3.6069-1.1449-7.5437-2.136-11.727-2.9746-4.1828-0.83867-8.6116-1.5258-13.201-2.0606-9.1791-1.0694-19.002-1.533-28.793-1.4004zm-216.75 200.26c6.8838 9e-3 12.515 0.18808 15.652 0.58008l7.8066 0.97461-0.91406 10.883c-0.47803 5.6926-1.2399 11.062-2.2988 16.143-1.0589 5.0802-2.4147 9.8728-4.0801 14.41s-3.6403 8.8188-5.9375 12.883c-2.2972 4.064-4.9164 7.9102-7.8711 11.57-4.2624 5.2802-8.6689 9.9135-13.301 13.945s-9.4886 7.4622-14.648 10.334-10.624 5.1844-16.471 6.9844c-5.8465 1.8-12.076 3.0859-18.768 3.9023-6.2421 0.76164-9.7062 1.1423-13.316 1.1328-3.6102-0.01-7.3665-0.40901-14.188-1.2051-4.7884-0.55884-9.2465-1.5031-13.354-2.8203s-7.8617-3.0072-11.244-5.0566-6.3931-4.4573-9.0078-7.2129c-2.6147-2.7556-4.8348-5.8574-6.6387-9.293-1.5153-2.886-2.4119-5.0114-2.9297-7.5469-0.51777-2.5355-0.6565-5.4824-0.65625-10.016 2.6e-4 -4.7153 0.13315-7.6655 0.74609-10.414 0.61295-2.7486 1.7071-5.2954 3.6289-9.1992 1.1575-2.3513 2.4982-4.598 4.0293-6.7422 1.5311-2.1442 3.2519-4.1865 5.166-6.1289 1.9141-1.9424 4.0217-3.7852 6.3281-5.5312 2.3064-1.746 4.8115-3.3942 7.5195-4.9492 2.708-1.555 5.6192-3.0154 8.7383-4.3848s6.4469-2.6488 9.9863-3.8379c7.0789-2.3782 15.008-4.4004 23.824-6.0898 3.2096-0.61501 8.8946-1.1913 15.814-1.6856 6.9198-0.49424 15.074-0.9072 23.219-1.1934 8.1446-0.28615 16.28-0.44481 23.164-0.43555z" fill="#fff" stroke-width="10.107"/>
</g>
</svg>
