<svg xmlns="http://www.w3.org/2000/svg" viewBox="0 0.258 174.221 55.8"><path d="M78.867 44.996l6.598 4.465-6.598 6.597-6.598-6.597 6.598-4.465zM157.387.259v48.684h-9.899l-.79-.855a17.336 17.336 0 0 1-6.68 1.336c-9.577 0-17.369-7.791-17.369-17.368 0-9.577 7.792-17.369 17.369-17.369 2.366 0 4.622.48 6.68 1.34V.26h10.688zm-98.96 14.428c9.576 0 17.367 7.792 17.367 17.369s-7.791 17.368-17.368 17.368c-9.577 0-17.368-7.791-17.368-17.368 0-9.577 7.791-17.369 17.368-17.369zm40.881 0c9.577 0 17.369 7.792 17.369 17.369s-7.792 17.368-17.369 17.368c-9.576 0-17.368-7.791-17.368-17.368 0-9.577 7.792-17.369 17.368-17.369zM10.688.258v15.77a17.271 17.271 0 0 1 6.68-1.34c9.577 0 17.369 7.791 17.369 17.368v16.887H24.049V32.056a6.688 6.688 0 0 0-6.68-6.68 6.688 6.688 0 0 0-6.68 6.68v16.887H0V.258h10.688zm163.532 15.77v32.915h-10.69V16.027h10.689zm-34.202 9.348a6.688 6.688 0 0 0-6.68 6.68 6.688 6.688 0 0 0 6.68 6.68 6.688 6.688 0 0 0 6.68-6.68 6.688 6.688 0 0 0-6.68-6.68zm-81.592 0a6.688 6.688 0 0 0-6.68 6.68 6.688 6.688 0 0 0 6.68 6.68 6.688 6.688 0 0 0 6.68-6.68 6.688 6.688 0 0 0-6.68-6.68zm40.882 0a6.688 6.688 0 0 0-6.68 6.68 6.688 6.688 0 0 0 6.68 6.68 6.688 6.688 0 0 0 6.68-6.68 6.688 6.688 0 0 0-6.68-6.68zM168.876.258a5.345 5.345 0 1 1 0 10.69 5.345 5.345 0 0 1 0-10.69z" fill="#F9DD71" fill-rule="evenodd" data-color="1"></path></svg>